<?xml version="1.0" encoding="utf-8"?>
<!-- Generator: Adobe Illustrator 21.1.0, SVG Export Plug-In . SVG Version: 6.00 Build 0)  -->
<svg version="1.1" id="Layer_1" xmlns="http://www.w3.org/2000/svg" xmlns:xlink="http://www.w3.org/1999/xlink" x="0px" y="0px"
	 viewBox="0 0 987.3 94.6" style="enable-background:new 0 0 987.3 94.6;" xml:space="preserve">
<style type="text/css">
	.st0{fill:#FFFFFF;stroke:#CCCCCC;stroke-miterlimit:10;}
	.st1{fill:#FF8220;}
	.st2{fill:#091F40;}
	.st3{fill:#FFFFFF;}
	.st4{fill:#B7B6C2;}
</style>
<g>
	<g>
		<path class="st1" d="M40.1,93.3L21.3,27.1h-0.6C21.6,38.3,22,47.1,22,53.4v40H0v-92h33.1l19.2,65.3h0.5L71.6,1.3h33.2v92H81.9V53
			c0-2.1,0-4.4,0.1-7c0.1-2.6,0.3-8.8,0.9-18.8h-0.6L63.8,93.3H40.1z"/>
		<path class="st1" d="M124.6,93.3v-92h25v92H124.6z"/>
		<path class="st1" d="M257.1,93.3h-32.6l-33.6-64.8h-0.6c0.8,10.2,1.2,18,1.2,23.3v41.5h-22v-92H202l33.5,63.9h0.4
			c-0.6-9.3-0.9-16.7-0.9-22.3V1.3h22.2V93.3z"/>
		<path class="st1" d="M331.6,93.3H277v-92h54.6v20h-29.8v14.5h27.6v20h-27.6v17.4h29.8V93.3z"/>
		<path class="st1" d="M372.6,59.9v33.5h-24.9v-92h30.1c25,0,37.5,9.1,37.5,27.2c0,10.7-5.2,18.9-15.6,24.7l26.8,40.1h-28.2
			l-19.5-33.5H372.6z M372.6,41.2h4.7c8.7,0,13-3.8,13-11.5c0-6.3-4.3-9.5-12.8-9.5h-4.9V41.2z"/>
		<path class="st2" d="M602.1,20.4c-5.9,0-10.5,2.4-13.8,7.3c-3.3,4.8-5,11.5-5,20c0,17.7,6.7,26.6,20.2,26.6c4.1,0,8-0.6,11.8-1.7
			c3.8-1.1,7.7-2.5,11.5-4.1v21c-7.7,3.4-16.4,5.1-26.1,5.1c-13.9,0-24.5-4-31.9-12.1c-7.4-8.1-11.1-19.7-11.1-34.9
			c0-9.5,1.8-17.9,5.4-25.1c3.6-7.2,8.7-12.8,15.5-16.6c6.7-3.9,14.7-5.8,23.8-5.8c9.9,0,19.4,2.2,28.5,6.5l-7.6,19.6
			c-3.4-1.6-6.8-2.9-10.2-4C609.7,20.9,606,20.4,602.1,20.4z"/>
		<path class="st2" d="M723.6,93.3h-25V55.8h-28.9v37.5h-25v-92h25v34.1h28.9V1.3h25V93.3z"/>
		<path class="st2" d="M800,93.3l-4.5-17.2h-29.9l-4.7,17.2h-27.3l30-92.4h33.2l30.4,92.4H800z M790.3,55.7l-4-15.1
			c-0.9-3.4-2-7.7-3.4-13c-1.3-5.3-2.2-9.1-2.6-11.5c-0.4,2.1-1.1,5.7-2.2,10.6c-1.1,4.9-3.6,14.6-7.4,29H790.3z"/>
		<path class="st2" d="M862,59.9v33.5h-24.9v-92h30.1c25,0,37.5,9.1,37.5,27.2c0,10.7-5.2,18.9-15.6,24.7L916,93.3h-28.2l-19.5-33.5
			H862z M862,41.2h4.7c8.7,0,13-3.8,13-11.5c0-6.3-4.3-9.5-12.8-9.5H862V41.2z"/>
		<path class="st2" d="M964.9,93.3h-24.9V21.7h-22.5V1.3h69.7v20.3h-22.4V93.3z"/>
	</g>
</g>
<g>
	<rect x="474.2" y="31.8" class="st1" width="30.8" height="30.8"/>
	<rect x="505" y="31.8" class="st2" width="30.8" height="30.8"/>
	<rect x="443.5" y="31.8" class="st2" width="30.8" height="30.8"/>
	<rect x="474.2" y="1" class="st2" width="30.8" height="30.8"/>
	<rect x="474.2" y="62.6" class="st2" width="30.8" height="30.8"/>
	<rect x="505" y="62.6" class="st4" width="30.8" height="30.8"/>
	<rect x="443.5" y="62.6" class="st4" width="30.8" height="30.8"/>
	<rect x="443.5" y="1" class="st4" width="30.8" height="30.8"/>
	<rect x="505" y="1" class="st4" width="30.8" height="30.8"/>
</g>
</svg>
